<svg width="201" height="162" viewBox="0 0 201 162" fill="none" xmlns="http://www.w3.org/2000/svg">
<path d="M26.0994 149.566H13.6776V153.646L17.8295 154.602C16.7173 156.31 14.8754 156.685 13.0981 156.685C10.2913 156.685 7.32203 155.752 7.32203 150.114C7.32203 144.451 10.2913 143.543 13.0981 143.543C15.3901 143.543 17.7903 144.149 18.5932 147.456H26.0459C25.0594 139.279 19.3287 138.228 13.0981 138.228C6.24744 138.228 0 139.497 0 150.114C0 160.687 6.24744 162 13.0981 162C19.3262 162 25.0548 160.914 26.045 152.772C26.1864 151.38 26.0994 149.566 26.0994 149.566Z" fill="white"/>
<path d="M47.1251 138.724V150.113C47.1251 155.517 44.1558 156.188 41.3496 156.188C38.543 156.188 35.5736 155.517 35.5736 150.113V138.724H28.2517V150.113C28.2517 160.244 34.4986 161.503 41.3496 161.503C48.2002 161.503 54.4477 160.244 54.4477 150.113V138.724H47.1251Z" fill="white"/>
<path d="M74.6341 161.502H82.4744L73.7589 138.724H63.0352L54.3203 161.502H62.16L63.8673 157.042H72.9274L74.6341 161.502ZM65.9004 151.727L68.3973 145.201L70.8943 151.727H65.9004Z" fill="white"/>
<path d="M107.283 161.502L103.288 152.512C103.351 152.492 103.414 152.471 103.476 152.449C105.691 151.663 107.171 149.568 107.171 147.219V144.271C107.171 142.799 106.587 141.387 105.546 140.346C104.506 139.305 103.093 138.72 101.621 138.721H84.0364V161.5H91.3584V152.768H95.7653L99.3568 161.502H107.283ZM91.3584 144.036H98.5548C98.5548 144.036 99.8485 144.036 99.8485 145.745C99.8485 147.454 98.5548 147.454 98.5548 147.454H91.3584V144.036Z" fill="white"/>
<path d="M122.88 138.724H109.781V161.503H122.88C129.73 161.503 135.283 160.244 135.283 150.113C135.283 139.939 129.73 138.724 122.88 138.724ZM117.104 156.188V144.039H122.88C125.686 144.039 127.961 144.687 127.961 150.113C127.961 155.517 125.686 156.188 122.88 156.188H117.104Z" fill="white"/>
<path d="M145.125 138.724H137.803V161.503H145.125V138.724Z" fill="white"/>
<path d="M166.969 161.502H174.809L166.094 138.724H155.37L146.655 161.502H154.495L156.202 157.042H165.262L166.969 161.502ZM158.235 151.727L160.732 145.201L163.229 151.727H158.235Z" fill="white"/>
<path d="M187.744 138.227C180.893 138.227 174.646 139.495 174.646 150.113C174.646 160.685 180.893 161.999 187.744 161.999C194.595 161.999 200.842 160.686 200.842 150.113C200.842 139.495 194.595 138.227 187.744 138.227ZM187.744 156.684C184.938 156.684 181.968 155.751 181.968 150.113C181.968 144.45 184.938 143.542 187.744 143.542C190.551 143.542 193.52 144.45 193.52 150.113C193.52 155.752 190.551 156.684 187.744 156.684Z" fill="white"/>
<path d="M167.225 134.863L164.947 133.333C164.394 133.984 163.808 134.212 163.19 134.212C161.758 134.212 160.13 132.878 158.308 132.878C157.071 132.878 155.704 133.496 154.239 135.579L156.485 137.011C157.006 136.197 157.592 135.905 158.242 135.905C159.707 135.905 161.465 137.337 163.385 137.337C164.622 137.337 165.891 136.783 167.225 134.863Z" fill="white"/>
<path fill-rule="evenodd" clip-rule="evenodd" d="M132.14 11.6457C116.358 21.8867 96.1503 33.1188 74.7561 44.2363C56.2159 53.8707 55.6487 64.9946 56.6084 80.623C48.0963 64.9695 42.9136 45.3279 40.88 21.8611L100.421 0L132.14 11.6457ZM66.3502 95.0769C80.0367 103.511 90.4294 107.023 103.779 100.178L68.8639 85.9068L96.0836 91.9084C104.943 94.4943 113.337 85.8178 120.296 82.4508L71.0448 76.5255L117.185 75.933C124.457 75.8889 129.219 65.0578 135.819 59.9519L73.9447 65.8604L127.205 53.6569C140.962 49.6143 142.528 33.4411 150.198 26.7916L76.1922 54.8553C101.322 42.6608 126.396 29.8394 147.208 17.1783L159.963 21.8611C155.551 72.7702 136.319 105.678 100.421 118.916C86.6445 113.835 75.322 105.858 66.3502 95.0769Z" fill="white"/>
</svg>
