<?xml version="1.0" encoding="UTF-8"?>
<svg version="1.1" viewBox="0 0 2048 2048" width="150" height="150" xmlns="http://www.w3.org/2000/svg">
<path transform="translate(0)" d="m0 0h2048v2048h-2048z" fill="#26438C"/>
<path transform="translate(1535,574)" d="m0 0 8 1 49 17 52 19 26 10 7 4 1 2v8l-2 8-2 26-10 79-8 51-12 67-14 65-12 48-15 53-9 29-14 41-10 26-17 42-12 27-13 28-13 26-12 22-14 25-16 26-11 17-13 19-11 16-14 19-11 14-13 16-10 13-12 13-7 8-7 7-7 8-30 30-8 7-12 11-11 9-10 9-30 23-18 13-20 14-21 13-26 16-29 16-42 21-25 11-31 13-10 4-5 1-13-3-25-10-31-13-26-12-19-10-17-9-24-14-17-10-33-22-18-13-16-12-14-11-11-9-10-9-8-7-10-9-8-7-15-15-8-7-40-40-7-10v-4l7 2 14 8 21 13 21 12 20 11 26 12 30 11 34 11 26 6 20 3 15 1h44l22-3 25-5 27-9 38-15 11-6-24-11-44-18-75-31-32-13-26-10-27-11-28-11-29-11-27-11-30-12-17-7-6-4v-2l15 2 38 7 53 12 37 9 80 18 60 13 27 4 21 1 18-3 31-9 24-10 19-10 17-10 18-11 14-9 24-15 14-9 21-13 12-7h2v-2l-57-7-51-6-63-8-86-10-22-3-100-11-74-9-69-8-3-3 5-1 37-1h153l224-3 72-2 18-2 15-4 12-5 15-9 10-8 10-9 23-23 7-8 10-12 9-11 13-16 11-13 9-10 12-13 12-12 7-8 9-9-17 1-27 3-46 4-84 8-205 18-57 6-32 3-52 6-58 6-8 1-14 1-26 2-19 1-2-2 8-3 17-4 18-5 29-7 37-7 66-15 32-8 57-13 62-14 40-9 50-12 28-7 42-9 43-10 24-6 24-8 20-9 15-8 17-12 14-12 12-11 13-15 10-14 12-18 11-18 12-20 14-26 12-23 10-19 6-10 11-18 9-13 10-14 16-20 1-3-14 7-26 10-48 17-31 12-73 28-29 11-107 40-47 18-79 30-35 13-49 19-34 13-21 8-25 10-63 24-33 13-28 11-29 9-7 2h-5l3-3 17-7 16-8 8-5 18-8 47-23 25-12 104-52 22-12 62-31 16-9 16-8 27-14 22-12 29-15 32-17 44-24 18-10 21-12 18-10 22-12 29-16 22-13 20-11 13-8 21-12 22-13 24-15 15-9z" fill="#FDFDFD"/>
<path transform="translate(1022,386)" d="m0 0h10l24 9 52 19 50 19 30 11 49 18 76 28 45 17 13 6v2l-5 3-19 12-23 15-21 13-24 15-20 12-23 14-22 13-77 45-18 10-26 15-18 10-19 11-23 13-27 15-29 16-23 13-25 13-18 10-34 18-24 13-23 12-25 13-19 10-25 13-23 13-18 10-21 13-18 12-18 13-11 9-10 9-15 14-18 20-13 18-13 22-8 16-7 15-9 27-6 28-6 44-1 11v69l2 42h-2l-9-19-8-16-12-25-16-37-9-22-13-33-14-40-13-40-12-41-17-67-10-46-9-47-10-58-6-45-6-53-4-42-1-8 6-5 22-10 49-18 53-20 28-10 100-37 44-16 54-20 98-36 39-14 40-15 30-11 34-12 34-13z" fill="#FDFDFD"/>
<path transform="translate(1585,589)" d="m0 0 7 1 10 3 7 3 14 5 9 3 13 4 12 5 15 7 5 1v2l4 2-1 29-1 7 2 6-3 7v13l-1 11-2 6-1 11v7l-3 14-2 14-2 5v11l-2 14h-2v14l-2 5-1 15-3 11-2 10-3 16-2 10-2 13h-2v8l-2 10-1 4-1 6-2 5-1 9h-2l-1 4v10l-3 6-1 9-2 2-1 11-3 5-1 10-1 2h-2l1 4-1 9-4 11-4 15-2 5-2 10-1 4-4 14-4 9-2 6-2 9h-2v6l-2 4-4 9-2 6h-2v6h-2l1 3-5 15-3 8-3 7-4 11-4 10-3 7-3 1-1 8-3 5-3 6-1 4h-2v4l-5 2 1-7 12-28 12-30 13-35 12-35 14-47 14-51 11-47 11-53 13-73 8-54 8-64 2-26 2-8v-10l-25-10-41-15-25-9z" fill="#1D3780"/>
<path transform="translate(868,440)" d="m0 0h2v3l-45 16-43 16-79 29-71 26-35 13-57 21-36 13-50 19-22 8-32 12-9 4h-4v-2l6-5 14-7 9-3 9-2 22-9 10-3 4-2h4l1-2 6-2 8-4 14-4 8-4 5-1v-2h4l1-2 17-6 6-3 15-5 5-2 11-2 7-4 7-1 5-2 11-3 9-2 10-5 14-6 8-2 5-3 20-7h4v-2l9-1 1-3 18-6 12-5 10-3 3-2 11-2 10-4 5-1 6-3 7-3 11-3 9-4 11-3 9-3 6-3h2v-2l5-1h3l9-4 3-2 9-1 5-2 9-3 2 1v-2l10-3z" fill="#1D3780"/>
<path transform="translate(661,1438)" d="m0 0 5 3 7 8 39 39 8 7 15 15 8 7 10 9 11 9 9 8 14 11 19 14 18 13 18 12 20 13 26 15 23 13 17 9 23 11 25 11 23 9v2l-5-1-13-4v-2l-8-1-4-3-11-4-5-2-7-2-10-7-12-5-9-4-3-3-10-4-13-4-1-4-5-2-7-4-4-1v-2l-3 1-11-5-1-3-9-3v-2l-8-1-5-5-5-3-1-2-4-1v-2l-4-1-5-5-10-7-7-9-6-2-5-5-12-10-6-4-5 1-10-8-1-4 1-3h-2l-5-6-8-7-3-3v-2h-3v-2l-5-2-5-5-6-7-3-2v-2l-4-2-6-8-7-6-5-5-12-11-5-5-10-6-1-3-2-1v-5l-3-1z" fill="#1D367F"/>
<path transform="translate(1424,1394)" d="m0 0h2l-1 4-3 5h-2l-2 4-1 3h-2l1 3-2 1-4 9-3 1-6 9h-2v2l-5 3-3 3-3 10-4 4-6 3-2 6h-2l-2 4-7 6h-2l-1 4-5 4h-2v2h-2v2l-5 5-3 1v2l-7 6-5 5h-2l-1 3-5 3-2 3-7 6-8 7-5 5-2-1-1 3-4 1v2h-3v2h-2l-1 3h-2l-2 4-5 3h-2v2l-5 3h-2v2l-2 1-1 3h-2l-1 3-8 3-5 1v2l-5 3-8 5-3 3-11 7-3 3-9 5-9 7-8 4-5 1-1 3h-3v2h-2v2l-5 2-9 6-8 4-15 9h-5v2l-5 5-9 3-16 8-3 4-8 1-15 6-3 2-3 1-3 4-9 2-18 6-6 3-6 2-6 1v-2l27-11 30-13 33-16 24-12 23-13 26-16 24-15 18-13 14-10 16-12 14-11 13-11 14-12 12-11 13-12 27-27 7-8 7-7 7-8 11-13 11-14 13-16z" fill="#1D367F"/>
<path transform="translate(1e3 733)" d="m0 0 2 1-7 5-10 5-3 3-6 1-1 2-3 1-1 2-7 3-5 2-1 2-10 4-2 3-5 1-2 2-7 2v2l-5 2-6 2v2l-8 3-15 8h-2l-1 3-6 2-11 6-5 3h-3l-1 3-6 1v2l-18 9-3 2h-4v2l-10 5h-3v2l-5 2-3 3h-5v2l-6 2-1 2-9 4h-2v2l-7 3-3 2h-4l-1 3-6 2-6 3-3 3-4 1-10 6-7 4-2 2-11 4-4 4-6 1-2 5-6 2-4 4-6 3-5 5-6 1-1 2-5 2-4 2v2h-2v2l-4 1-2 2-4 3h-2v2h-2l-1 2-2-1-1 5-5 3h-2v2l-4 1-2 4-3 1v2h-2l-2 5h-3v4l-3 2-1 2h-2l-1 3-3 1-1 2-3 1-1 2h-2v2h-3l-2 5h-2l-2 5h-2l-1 4h-2v5l-3 3-2 3-2 2v2h-2l-1 7-3 1-1 6h-2l-1 7-6 10-4 7-4 4v3h-2l-2 7-4 10-4 9-2 3h-2v-7l8-22 10-21 16-27 14-19 24-26 13-12 14-12 14-10 17-12 21-13 15-9 27-15 25-13 19-10 27-14 20-11 16-8 24-13 80-43 23-13z" fill="#1D367F"/>
<path transform="translate(379,669)" d="m0 0h3l5 45 7 55 8 48 10 55 12 55 7 28v7l-4-4-2-10-5-10-1-7-2-7-1-9-4-19-2-10-2-5-3-11-2-7-1-17-3-17-2-12-2-4-2-12-2-13-1-4-2-16-3-30v-6l-3-9-1-6-1-17-2-14v-11z" fill="#1D3780"/>
<path transform="translate(1013,1462)" d="m0 0h6l26 11 17 8-3 2-17 8-42 16-20 6-15 3h-10l2-2 9-2 2-2 8-2 5-2 8-1 5-3h2v-2l15-7 12-3 6-4 4-4 8 3-4-7v-2l-9-2-10-4-5-6z" fill="#1D367F"/>
<path transform="translate(1037,387)" d="m0 0 9 2 7 2 11 5 14 4 6 3 5 1 10 3 2 2 11 4 14 4 9 4 13 5 11 4 14 5 1 2 9 2 7 3 18 6 9 4 22 8 12 5 7 3 9 3 7 2 7 3 13 5 7 2 9 3 7 3 12 5 18 7 2 2-7-1-40-15-52-19-87-32-42-16-46-17-27-10-11-5z" fill="#1D3780"/>
<path transform="translate(1e3 733)" d="m0 0 2 1-7 5-10 5-3 3-6 1-1 2-3 1-1 2-7 3-5 2-1 2-10 4-2 3-5 1-2 2-7 2v2l-5 2-6 2v2l-8 3-15 8h-2l-1 3-6 2-11 6-5 3h-3l-1 3-6 1v2l-18 9-3 2h-4v2l-10 5h-3v2l-5 2-3 3h-5v2l-6 2-1 2-9 4h-2v2l-7 3-3 2h-4l-1 3-6 2-6 3-3 3-4 1-10 6-7 4-2 2-11 4-4 4-6 1 2-4 46-25 35-18 19-10 22-12 16-8 24-13 80-43 23-13z" fill="#1D3780"/>
<path transform="translate(472,1098)" d="m0 0h2l9 25 11 27 14 34 17 38 11 22 3 7-1 4-5-5-2-3-2-6-6-10-7-16v-2h-2l-4-13-6-12-5-13-2-3-2-7-5-10-5-13-3-10-4-9-3-11-1-6-3-4z" fill="#1D3780"/>
<path transform="translate(1392,1044)" d="m0 0h8l2 6-8 8-7 8h-4v-2h-2l1-4 2-3h2v-2l-8 1-4 2-17 1-10-3-6-1v-2l-2-1v-2l3-1h8l28-3z" fill="#1C357E"/>
<path transform="translate(1542,1196)" d="m0 0 3 1-2 1-1 7h-2l1 3-3 9-3 2-3 6-1 4v2l-3 3-3 9-5 5-1 4-4 1v6l-2 2-1 7-5 3v2h-2l-2 4-3 7h-2l-1 7-3 7h-3v2h-2l-1 7-5 1 2-5 15-27 9-16 17-33 10-21 4-9z" fill="#1D3780"/>
<path transform="translate(1013,386)" d="m0 0h6v2l-19 7-29 11-37 13-59 22-4-1 4-3 9-3 8-4 9-2 10-4 3-1 2 1v-2l8-3 4-2 9-2 6-3 10-3 7-3 4-1 3-2h3v-2l9-3 6-3 2 1 1-2h3v-2l9-4h5 3 5z" fill="#1F3982"/>
<path transform="translate(1293,1054)" d="m0 0 5 1v2h-3l-1 2h-3-6v-2h-5v2l-15 4-10 2-12 1-10 1h-29l-1-1h-12v-2l15-2 37-2 2 1v-2l31-4z" fill="#1C357E"/>
<path transform="translate(1549,687)" d="m0 0 4 1-8 5-6 7-2 4-16 5-12 3-5-1-2-2 5-5h7l1-4 24-9z" fill="#1C367F"/>
<path transform="translate(794,1373)" d="m0 0 8 1 27 11 28 11 40 16 7 3v2l-12-3-14-6-17-7-26-10-8-4-17-6-11-5-5-2z" fill="#1F3982"/>
<path transform="translate(1e3 733)" d="m0 0 2 1-7 5-10 5-3 3-6 1-1 2-3 1-1 2-7 3-5 2-1 2-10 4-2 3-5 1-2 2-7 2v2l-5 2-6 2v2l-8 3-15 8h-2l-1 3-6 2-11 6-5 3-4-1 32-17 22-12 30-16 23-13z" fill="#1F3982"/>
<path transform="translate(1013,386)" d="m0 0h6v2l-19 7-29 11-8 2 1-3 3-2h3v-2l9-3 6-3 2 1 1-2h3v-2l9-4h5 3 5z" fill="#1D3780"/>
<path transform="translate(1585,589)" d="m0 0 7 1 10 3 7 3 14 5 9 3 13 4 12 5 16 8-1 2-20-8-41-15-25-9z" fill="#1E3881"/>
<path transform="translate(1252,466)" d="m0 0 11 3 9 3 5 3 33 11 7 3 12 5 18 7 2 2-7-1-40-15-52-19z" fill="#1E3881"/>
<path transform="translate(1119,666)" d="m0 0 4 1-17 9-4 3-11 6-8 4h-2v2l-6 3-23 13-7 5-7 3-17 10-4 2h-3v2l-8 4h-2v-2l26-14 24-14 20-11 17-10 25-14z" fill="#1F3A83"/>
<path transform="translate(1286,1053)" d="m0 0h11l-4 2-17 1-24 3h-7v2l-39 2h-11v-1l16-2z" fill="#27448D"/>
<path transform="translate(868,440)" d="m0 0h2v3l-45 16-11 4-2-1 5-5 9-3 4-2h5l5-2 9-3 2 1v-2l10-3z" fill="#1E3881"/>
<path transform="translate(1e3 733)" d="m0 0 2 1-7 5-10 5-3 3-6 1-1 2-3 1-1 2-7 3-5 2-1 2-10 4-2 3-5 1-4 2 1-3 26-14 23-13z" fill="#1F3982"/>
<path transform="translate(1502,1273)" d="m0 0h3l-2 4-3 7h-2l-1 7-3 7h-3v2h-2l-1 7-5 1 2-5 15-27z" fill="#1E3881"/>
<path transform="translate(431,963)" d="m0 0h2l8 31v5l-3-1-1-8-3-4-3-13-1-7z" fill="#1E3881"/>
<path transform="translate(1316,549)" d="m0 0h2v2l-10 6-7 5-11 6-8 5h-2l-1 3-10 5-3 2-3-1 24-15 21-13z" fill="#1F3982"/>
<path transform="translate(1173,1325)" d="m0 0h5l-1 3-20 12-4 1 2-5h3l1-5 10-4z" fill="#1E3780"/>
<path transform="translate(1261,583)" d="m0 0h2v2l-9 5-13 8-22 13-10 6h-2v-2l21-12 28-17z" fill="#1F3982"/>
<path transform="translate(1546,575)" d="m0 0h5v2h9l5 2v2l5-1 5 3v2l6 1 1 2-7-1-29-10z" fill="#1E3881"/>
<path transform="translate(1066,869)" d="m0 0 4 1-5 3-6 2-4 2-5 1-10 4-9 4-11 4-3-1 8-4z" fill="#1F3982"/>
<path transform="translate(957,1658)" d="m0 0 5 1 29 12 8 3v2l-5-1-13-4v-2l-8-1-4-3-11-4z" fill="#1E3881"/>
<path transform="translate(869,1402)" d="m0 0 6 1 29 12v2l-12-3-14-6-9-4z" fill="#1E3881"/>
<path transform="translate(1400,1042)" d="m0 0h9l-6 7-4-3 1-2-31 4h-7l2-2z" fill="#27448D"/>
<path transform="translate(445,1014)" d="m0 0 2 1 7 23v6h-2l-2-7-2-4-2-9-2-7z" fill="#1E3881"/>
<path transform="translate(896,429)" d="m0 0 2 2-4 3-19 7-4-1 4-3 9-3 8-4z" fill="#1E3881"/>
<path transform="translate(937,1648)" d="m0 0 6 2 15 7-3 3-9-3-8-6z" fill="#1E3780"/>
<path transform="translate(1352,526)" d="m0 0 3 1-8 5h-2v2l-10 6-11 7-5 2v-2l16-10 15-10z" fill="#1F3982"/>
<path transform="translate(1037,387)" d="m0 0 9 2 7 2 11 5v3l-26-10z" fill="#1E3881"/>
<path transform="translate(868,440)" d="m0 0h2v3l-25 9h-2l1-3 5-2 2 1v-2l10-3z" fill="#1F3A83"/>
<path transform="translate(1059,1673)" d="m0 0 2 1-5 4-16 6-6 1v-2z" fill="#1E3881"/>
<path transform="translate(1483,1309)" d="m0 0 1 4v2h-2v2l-4 1-1 4-5 7-1-4 9-14z" fill="#1D3780"/>
<path transform="translate(765,1361)" d="m0 0 10 3 16 6v2l-8-2-5-2-6-1-8-4z" fill="#1F3982"/>
<path transform="translate(1336,962)" d="m0 0h2v3l-14 5h-6l4-4 7-1z" fill="#1E3881"/>
<path transform="translate(1230,1290)" d="m0 0 3 1v2l-12 7h-3v-3h2l1-2h2l1-2-2-1 5 1v-2z" fill="#1E3881"/>
<path transform="translate(1267,1191)" d="m0 0h3l-1 3-11 7-4-1 4-5 7-1v-2z" fill="#1E3881"/>
<path transform="translate(868,805)" d="m0 0h3l-1 3-6 1v2l-12 6-5 1 4-4z" fill="#1D3780"/>
<path transform="translate(916,422)" d="m0 0h2v3l-19 7-2-1 5-4 12-4 2 1z" fill="#1F3A83"/>
<path transform="translate(658,1426)" d="m0 0 7 1 5 2 3 5-6-1-6-3v-2h-3z" fill="#1E3881"/>
<path transform="translate(957,757)" d="m0 0 3 1-1 2-10 4-2 3-5 1-4 2 1-3z" fill="#1E3881"/>
<path transform="translate(1353,761)" d="m0 0h5l-2 2-7 3 2 2-5 2-1-3h-3v-2z" fill="#1E3881"/>
<path transform="translate(1367,946)" d="m0 0 4 1-1 3-10 5-4-1 6-3h2l-1-3z" fill="#1E3881"/>
<path transform="translate(1585,589)" d="m0 0 7 1 10 3 2 4-18-6z" fill="#1F3982"/>
<path transform="translate(1322,1051)" d="m0 0h11l4 2-5 2-9-1z" fill="#1C357E"/>
<path transform="translate(1424,1394)" d="m0 0h2l-1 4-3 5-5 3-2 1 2-4z" fill="#1F3A83"/>
<path transform="translate(782,850)" d="m0 0 2 1-1 2h-2l-1 3-6 2-5 1v-2z" fill="#1E3881"/>
<path transform="translate(1382,750)" d="m0 0 4 1-2 5-7 1 2-6z" fill="#1D367F"/>
<path transform="translate(1360,1088)" d="m0 0h4l-2 4-3 4-5-2 2-1 1-3z" fill="#1E3881"/>
<path transform="translate(809,836)" d="m0 0 2 1-1 2-3 1-1 2-9 4-2-1 3-3z" fill="#1E3881"/>
<path transform="translate(1400,743)" d="m0 0 4 1-3 3-9 2-5 1v-2z" fill="#1F3982"/>
<path transform="translate(1144,652)" d="m0 0 2 1-5 4-10 5-5 3-2-1 13-8z" fill="#1F3A83"/>
<path transform="translate(1047,1475)" d="m0 0 6 2 9 4-4 2-10-5z" fill="#26438C"/>
<path transform="translate(1502,1273)" d="m0 0h3l-2 4-3 7-4 1 2-5z" fill="#1F3982"/>
<path transform="translate(1534,571)" d="m0 0 7 2v1l-8 2-4 2-3-1h2l1-3h4z" fill="#1E3881"/>
<path transform="translate(1315,775)" d="m0 0h5l-2 3-6 1-3 3h-2l-1-3z" fill="#1E3881"/>
<path transform="translate(1470,1330)" d="m0 0h2l-2 5h-2l-1 4h-3l1-4z" fill="#1E3780"/>
<path transform="translate(984,1669)" d="m0 0 10 3 5 2v2l-5-1-9-3z" fill="#203B84"/>
<path transform="translate(1371,754)" d="m0 0 4 1-4 2-7 3-4-1 8-4z" fill="#1F3A83"/>
<path transform="translate(445,1014)" d="m0 0 2 1 2 9-4-1-1-6z" fill="#1F3982"/>
<path transform="translate(1476,1317)" d="m0 0 2 1-1 4-5 7-1-4z" fill="#1F3982"/>
<path transform="translate(472,1098)" d="m0 0h2l3 11h-2l-4-7z" fill="#1F3A83"/>
<path transform="translate(1402,1043)" d="m0 0h5l-2 4-3 2-3-3z" fill="#223D86"/>
<path transform="translate(1419,906)" d="m0 0 1 3-8 8h-2l2-4 3-1v-2h2z" fill="#1F3A83"/>
<path transform="translate(1292,481)" d="m0 0 9 2 3 3-7-1-5-2z" fill="#1D3780"/>
<path transform="translate(1241,462)" d="m0 0 6 1 5 3-4 1-7-3z" fill="#1D367F"/>
</svg>
