<svg width="150" height="150" viewBox="0 0 150 150" fill="none" xmlns="http://www.w3.org/2000/svg">
<path d="M112.427 42.041L113.013 42.1143L116.602 43.3594L120.41 44.751L122.314 45.4834L122.827 45.7764L122.9 45.9229V46.5088L122.754 47.0947L122.607 48.999L121.875 54.7852L121.289 58.5205L120.41 63.4277L119.385 68.1885L118.506 71.7041L117.407 75.5859L116.748 77.71L115.723 80.7129L114.99 82.6172L113.745 85.6934L112.866 87.6709L111.914 89.7217L110.962 91.626L110.083 93.2373L109.058 95.0684L107.886 96.9727L107.08 98.2178L106.128 99.6094L105.322 100.781L104.297 102.173L103.491 103.198L102.539 104.37L101.807 105.322L100.928 106.274L100.415 106.86L99.9023 107.373L99.3896 107.959L97.1924 110.156L96.6064 110.669L95.7275 111.475L94.9219 112.134L94.1895 112.793L91.9922 114.478L90.6738 115.43L89.209 116.455L87.6709 117.407L85.7666 118.579L83.6426 119.751L80.5664 121.289L78.7354 122.095L76.4648 123.047L75.7324 123.34L75.3662 123.413L74.4141 123.193L72.583 122.461L70.3125 121.509L68.4082 120.63L67.0166 119.897L65.7715 119.238L64.0137 118.213L62.7686 117.48L60.3516 115.869L59.0332 114.917L57.8613 114.038L56.8359 113.232L56.0303 112.573L55.2979 111.914L54.7119 111.401L53.9795 110.742L53.3936 110.229L52.2949 109.131L51.709 108.618L48.7793 105.688L48.2666 104.956V104.663L48.7793 104.81L49.8047 105.396L51.3428 106.348L52.8809 107.227L54.3457 108.032L56.25 108.911L58.4473 109.717L60.9375 110.522L62.8418 110.962L64.3066 111.182L65.4053 111.255H68.6279L70.2393 111.035L72.0703 110.669L74.0479 110.01L76.8311 108.911L77.6367 108.472L75.8789 107.666L72.6562 106.348L67.1631 104.077L64.8193 103.125L62.915 102.393L60.9375 101.587L58.8867 100.781L56.7627 99.9756L54.7852 99.1699L52.5879 98.291L51.3428 97.7783L50.9033 97.4854V97.3389L52.002 97.4854L54.7852 97.998L58.667 98.877L61.377 99.5361L67.2363 100.854L71.6309 101.807L73.6084 102.1L75.1465 102.173L76.4648 101.953L78.7354 101.294L80.4932 100.562L81.8848 99.8291L83.1299 99.0967L84.4482 98.291L85.4736 97.6318L87.2314 96.5332L88.2568 95.874L89.7949 94.9219L90.6738 94.4092H90.8203V94.2627L86.6455 93.75L82.9102 93.3105L78.2959 92.7246L71.9971 91.9922L70.3857 91.7725L63.0615 90.9668L57.6416 90.3076L52.5879 89.7217L52.3682 89.502L52.7344 89.4287L55.4443 89.3555H66.6504L83.0566 89.1357L88.3301 88.9893L89.6484 88.8428L90.7471 88.5498L91.626 88.1836L92.7246 87.5244L93.457 86.9385L94.1895 86.2793L95.874 84.5947L96.3867 84.0088L97.1191 83.1299L97.7783 82.3242L98.7305 81.1523L99.5361 80.2002L100.195 79.4678L101.074 78.5156L101.953 77.6367L102.466 77.0508L103.125 76.3916L101.88 76.4648L99.9023 76.6846L96.5332 76.9775L90.3809 77.5635L75.3662 78.8818L71.1914 79.3213L68.8477 79.541L65.0391 79.9805L60.791 80.4199L60.2051 80.4932L59.1797 80.5664L57.2754 80.7129L55.8838 80.7861L55.7373 80.6396L56.3232 80.4199L57.5684 80.127L58.8867 79.7607L61.0107 79.248L63.7207 78.7354L68.5547 77.6367L70.8984 77.0508L75.0732 76.0986L79.6143 75.0732L82.5439 74.4141L86.2061 73.5352L88.2568 73.0225L91.333 72.3633L94.4824 71.6309L96.2402 71.1914L97.998 70.6055L99.4629 69.9463L100.562 69.3604L101.807 68.4814L102.832 67.6025L103.711 66.7969L104.663 65.6982L105.396 64.6729L106.274 63.3545L107.08 62.0361L107.959 60.5713L108.984 58.667L109.863 56.9824L110.596 55.5908L111.035 54.8584L111.841 53.54L112.5 52.5879L113.232 51.5625L114.404 50.0977L114.478 49.8779L113.452 50.3906L111.548 51.123L108.032 52.3682L105.762 53.2471L100.415 55.2979L98.291 56.1035L90.4541 59.0332L87.0117 60.3516L81.2256 62.5488L78.6621 63.501L75.0732 64.8926L72.583 65.8447L71.0449 66.4307L69.2139 67.1631L64.5996 68.9209L62.1826 69.873L60.1318 70.6787L58.0078 71.3379L57.4951 71.4844H57.1289L57.3486 71.2646L58.5938 70.752L59.7656 70.166L60.3516 69.7998L61.6699 69.2139L65.1123 67.5293L66.9434 66.6504L74.5605 62.8418L76.1719 61.9629L80.7129 59.6924L81.8848 59.0332L83.0566 58.4473L85.0342 57.4219L86.6455 56.543L88.7695 55.4443L91.1133 54.1992L94.3359 52.4414L95.6543 51.709L97.1924 50.8301L98.5107 50.0977L100.122 49.2188L102.246 48.0469L103.857 47.0947L105.322 46.2891L106.274 45.7031L107.812 44.8242L109.424 43.8721L111.182 42.7734L112.28 42.1143L112.427 42.041Z" fill="#FDFDFD"/>
<path d="M74.8535 28.2715H75.5859L77.3438 28.9307L81.1523 30.3223L84.8145 31.7139L87.0117 32.5195L90.6006 33.8379L96.167 35.8887L99.4629 37.1338L100.415 37.5732V37.7197L100.049 37.9395L98.6572 38.8184L96.9727 39.917L95.4346 40.8691L93.6768 41.9678L92.2119 42.8467L90.5273 43.8721L88.916 44.8242L83.2764 48.1201L81.958 48.8525L80.0537 49.9512L78.7354 50.6836L77.3438 51.4893L75.6592 52.4414L73.6816 53.54L71.5576 54.7119L69.873 55.6641L68.042 56.6162L66.7236 57.3486L64.2334 58.667L62.4756 59.6191L60.791 60.498L58.96 61.4502L57.5684 62.1826L55.7373 63.1348L54.0527 64.0869L52.7344 64.8193L51.1963 65.7715L49.8779 66.6504L48.5596 67.6025L47.7539 68.2617L47.0215 68.9209L45.9229 69.9463L44.6045 71.4111L43.6523 72.7295L42.7002 74.3408L42.1143 75.5127L41.6016 76.6113L40.9424 78.5889L40.5029 80.6396L40.0635 83.8623L39.9902 84.668V89.7217L40.1367 92.7979H39.9902L39.3311 91.4062L38.7451 90.2344L37.8662 88.4033L36.6943 85.6934L36.0352 84.082L35.083 81.665L34.0576 78.7354L33.1055 75.8057L32.2266 72.8027L30.9814 67.8955L30.249 64.5264L29.5898 61.084L28.8574 56.8359L28.418 53.54L27.9785 49.6582L27.6855 46.582L27.6123 45.9961L28.0518 45.6299L29.6631 44.8975L33.252 43.5791L37.1338 42.1143L39.1846 41.3818L46.5088 38.6719L49.7314 37.5L53.6865 36.0352L60.8643 33.3984L63.7207 32.373L66.6504 31.2744L68.8477 30.4688L71.3379 29.5898L73.8281 28.6377L74.8535 28.2715Z" fill="#FDFDFD"/>
<path d="M116.089 43.1396L116.602 43.2129L117.334 43.4326L117.847 43.6523L118.872 44.0186L119.531 44.2383L120.483 44.5312L121.362 44.8975L122.461 45.4102L122.827 45.4834V45.6299L123.12 45.7764L123.047 47.9004L122.974 48.4131L123.12 48.8525L122.9 49.3652V50.3174L122.827 51.123L122.681 51.5625L122.607 52.3682V52.8809L122.388 53.9062L122.241 54.9316L122.095 55.2979V56.1035L121.948 57.1289H121.802V58.1543L121.655 58.5205L121.582 59.6191L121.362 60.4248L121.216 61.1572L120.996 62.3291L120.85 63.0615L120.703 64.0137H120.557V64.5996L120.41 65.332L120.337 65.625L120.264 66.0645L120.117 66.4307L120.044 67.0898H119.897L119.824 67.3828V68.1152L119.604 68.5547L119.531 69.2139L119.385 69.3604L119.312 70.166L119.092 70.5322L119.019 71.2646L118.945 71.4111H118.799L118.872 71.7041L118.799 72.3633L118.506 73.1689L118.213 74.2676L118.066 74.6338L117.92 75.3662L117.847 75.6592L117.554 76.6846L117.261 77.3438L117.114 77.7832L116.968 78.4424H116.821V78.8818L116.675 79.1748L116.382 79.834L116.235 80.2734H116.089V80.7129H115.942L116.016 80.9326L115.649 82.0312L115.43 82.6172L115.21 83.1299L114.917 83.9355L114.624 84.668L114.404 85.1807L114.185 85.2539L114.111 85.8398L113.892 86.2061L113.672 86.6455L113.599 86.9385H113.452V87.2314L113.086 87.3779L113.159 86.8652L114.038 84.8145L114.917 82.6172L115.869 80.0537L116.748 77.4902L117.773 74.0479L118.799 70.3125L119.604 66.8701L120.41 62.9883L121.362 57.6416L121.948 53.6865L122.534 48.999L122.681 47.0947L122.827 46.5088V45.7764L120.996 45.0439L117.993 43.9453L116.162 43.2861L116.089 43.1396Z" fill="#1D3780"/>
<path d="M63.5742 32.2266H63.7207V32.4463L60.4248 33.6182L57.2754 34.79L51.4893 36.9141L46.2891 38.8184L43.7256 39.7705L39.5508 41.3086L36.9141 42.2607L33.252 43.6523L31.6406 44.2383L29.2969 45.1172L28.6377 45.4102H28.3447V45.2637L28.7842 44.8975L29.8096 44.3848L30.4688 44.165L31.1279 44.0186L32.7393 43.3594L33.4717 43.1396L33.7646 42.9932H34.0576L34.1309 42.8467L34.5703 42.7002L35.1562 42.4072L36.1816 42.1143L36.7676 41.8213L37.1338 41.748V41.6016H37.4268L37.5 41.4551L38.7451 41.0156L39.1846 40.7959L40.2832 40.4297L40.6494 40.2832L41.4551 40.1367L41.9678 39.8438L42.4805 39.7705L42.8467 39.624L43.6523 39.4043L44.3115 39.2578L45.0439 38.8916L46.0693 38.4521L46.6553 38.3057L47.0215 38.0859L48.4863 37.5732H48.7793V37.4268L49.4385 37.3535L49.5117 37.1338L50.8301 36.6943L51.709 36.3281L52.4414 36.1084L52.6611 35.9619L53.4668 35.8154L54.1992 35.5225L54.5654 35.4492L55.0049 35.2295L55.5176 35.0098L56.3232 34.79L56.9824 34.4971L57.7881 34.2773L58.4473 34.0576L58.8867 33.8379H59.0332V33.6914L59.3994 33.6182H59.6191L60.2783 33.3252L60.498 33.1787L61.1572 33.1055L61.5234 32.959L62.1826 32.7393L62.3291 32.8125V32.666L63.0615 32.4463L63.5742 32.2266Z" fill="#1D3780"/>
<path d="M48.4131 105.322L48.7793 105.542L49.292 106.128L52.1484 108.984L52.7344 109.497L53.833 110.596L54.4189 111.108L55.1514 111.768L55.957 112.427L56.6162 113.013L57.6416 113.818L59.0332 114.844L60.3516 115.796L61.6699 116.675L63.1348 117.627L65.0391 118.726L66.7236 119.678L67.9688 120.337L69.6533 121.143L71.4844 121.948L73.1689 122.607V122.754L72.8027 122.681L71.8506 122.388V122.241L71.2646 122.168L70.9717 121.948L70.166 121.655L69.7998 121.509L69.2871 121.362L68.5547 120.85L67.6758 120.483L67.0166 120.19L66.7969 119.971L66.0645 119.678L65.1123 119.385L65.0391 119.092L64.6729 118.945L64.1602 118.652L63.8672 118.579V118.433L63.6475 118.506L62.8418 118.14L62.7686 117.92L62.1094 117.7V117.554L61.5234 117.48L61.1572 117.114L60.791 116.895L60.7178 116.748L60.4248 116.675V116.528L60.1318 116.455L59.7656 116.089L59.0332 115.576L58.5205 114.917L58.0811 114.771L57.7148 114.404L56.8359 113.672L56.3965 113.379L56.0303 113.452L55.2979 112.866L55.2246 112.573L55.2979 112.354H55.1514L54.7852 111.914L54.1992 111.401L53.9795 111.182V111.035H53.7598V110.889L53.3936 110.742L53.0273 110.376L52.5879 109.863L52.3682 109.717V109.57L52.0752 109.424L51.6357 108.838L51.123 108.398L50.7568 108.032L49.8779 107.227L49.5117 106.86L48.7793 106.421L48.7061 106.201L48.5596 106.128V105.762L48.3398 105.688L48.4131 105.322Z" fill="#1D367F"/>
<path d="M104.297 102.1H104.443L104.37 102.393L104.15 102.759H104.004L103.857 103.052L103.784 103.271H103.638L103.711 103.491L103.564 103.564L103.271 104.224L103.052 104.297L102.612 104.956H102.466V105.103L102.1 105.322L101.88 105.542L101.66 106.274L101.367 106.567L100.928 106.787L100.781 107.227H100.635L100.488 107.52L99.9756 107.959H99.8291L99.7559 108.252L99.3896 108.545H99.2432V108.691H99.0967V108.838L98.7305 109.204L98.5107 109.277V109.424L97.998 109.863L97.6318 110.229H97.4854L97.4121 110.449L97.0459 110.669L96.8994 110.889L96.3867 111.328L95.8008 111.841L95.4346 112.207L95.2881 112.134L95.2148 112.354L94.9219 112.427V112.573H94.7021V112.72H94.5557L94.4824 112.939H94.3359L94.1895 113.232L93.8232 113.452H93.6768V113.599L93.3105 113.818H93.1641V113.965L93.0176 114.038L92.9443 114.258H92.7979L92.7246 114.478L92.1387 114.697L91.7725 114.771V114.917L91.4062 115.137L90.8203 115.503L90.6006 115.723L89.7949 116.235L89.5752 116.455L88.916 116.821L88.2568 117.334L87.6709 117.627L87.3047 117.7L87.2314 117.92H87.0117V118.066H86.8652V118.213L86.499 118.359L85.8398 118.799L85.2539 119.092L84.1553 119.751H83.7891V119.897L83.4229 120.264L82.7637 120.483L81.5918 121.069L81.3721 121.362L80.7861 121.436L79.6875 121.875L79.4678 122.021L79.248 122.095L79.0283 122.388L78.3691 122.534L77.0508 122.974L76.6113 123.193L76.1719 123.34L75.7324 123.413V123.267L77.71 122.461L79.9072 121.509L82.3242 120.337L84.082 119.458L85.7666 118.506L87.6709 117.334L89.4287 116.235L90.7471 115.283L91.7725 114.551L92.9443 113.672L93.9697 112.866L94.9219 112.061L95.9473 111.182L96.8262 110.376L97.7783 109.497L99.7559 107.52L100.269 106.934L100.781 106.421L101.294 105.835L102.1 104.883L102.905 103.857L103.857 102.686L104.297 102.1Z" fill="#1D367F"/>
<path d="M73.2422 53.6865L73.3887 53.7598L72.876 54.126L72.1436 54.4922L71.9238 54.7119L71.4844 54.7852L71.4111 54.9316L71.1914 55.0049L71.1182 55.1514L70.6055 55.3711L70.2393 55.5176L70.166 55.6641L69.4336 55.957L69.2871 56.1768L68.9209 56.25L68.7744 56.3965L68.2617 56.543V56.6895L67.8955 56.8359L67.4561 56.9824V57.1289L66.8701 57.3486L65.7715 57.9346H65.625L65.5518 58.1543L65.1123 58.3008L64.3066 58.7402L63.9404 58.96H63.7207L63.6475 59.1797L63.208 59.2529V59.3994L61.8896 60.0586L61.6699 60.2051H61.377V60.3516L60.6445 60.7178H60.4248V60.8643L60.0586 61.0107L59.8389 61.2305H59.4727V61.377L59.0332 61.5234L58.96 61.6699L58.3008 61.9629H58.1543V62.1094L57.6416 62.3291L57.4219 62.4756H57.1289L57.0557 62.6953L56.6162 62.8418L56.1768 63.0615L55.957 63.2812L55.6641 63.3545L54.9316 63.7939L54.4189 64.0869L54.2725 64.2334L53.4668 64.5264L53.1738 64.8193L52.7344 64.8926L52.5879 65.2588L52.1484 65.4053L51.8555 65.6982L51.416 65.918L51.0498 66.2842L50.6104 66.3574L50.5371 66.5039L50.1709 66.6504L49.8779 66.7969V66.9434H49.7314V67.0898L49.4385 67.1631L49.292 67.3096L48.999 67.5293H48.8525V67.6758H48.7061L48.6328 67.8223L48.4863 67.749L48.4131 68.1152L48.0469 68.335H47.9004V68.4814L47.6074 68.5547L47.4609 68.8477L47.2412 68.9209V69.0674H47.0947L46.9482 69.4336H46.7285V69.7266L46.5088 69.873L46.4355 70.0195H46.2891L46.2158 70.2393L45.9961 70.3125L45.9229 70.459L45.7031 70.5322L45.6299 70.6787H45.4834V70.8252H45.2637L45.1172 71.1914H44.9707L44.8242 71.5576H44.6777L44.6045 71.8506H44.458V72.2168L44.2383 72.4365L44.0918 72.6562L43.9453 72.8027V72.9492H43.7988L43.7256 73.4619L43.5059 73.5352L43.4326 73.9746H43.2861L43.2129 74.4873L42.7734 75.2197L42.4805 75.7324L42.1875 76.0254V76.2451H42.041L41.8945 76.7578L41.6016 77.4902L41.3086 78.1494L41.1621 78.3691H41.0156V77.8564L41.6016 76.2451L42.334 74.707L43.5059 72.7295L44.5312 71.3379L46.2891 69.4336L47.2412 68.5547L48.2666 67.6758L49.292 66.9434L50.5371 66.0645L52.0752 65.1123L53.1738 64.4531L55.1514 63.3545L56.9824 62.4023L58.374 61.6699L60.3516 60.6445L61.8164 59.8389L62.9883 59.2529L64.7461 58.3008L70.6055 55.1514L72.29 54.1992L73.2422 53.6865Z" fill="#1D367F"/>
<path d="M27.7588 48.999H27.9785L28.3447 52.2949L28.8574 56.3232L29.4434 59.8389L30.1758 63.8672L31.0547 67.8955L31.5674 69.9463V70.459L31.2744 70.166L31.1279 69.4336L30.7617 68.7012L30.6885 68.1885L30.542 67.6758L30.4688 67.0166L30.1758 65.625L30.0293 64.8926L29.8828 64.5264L29.6631 63.7207L29.5166 63.208L29.4434 61.9629L29.2236 60.7178L29.0771 59.8389L28.9307 59.5459L28.7842 58.667L28.6377 57.7148L28.5645 57.4219L28.418 56.25L28.1982 54.0527V53.6133L27.9785 52.9541L27.9053 52.5146L27.832 51.2695L27.6855 50.2441V49.4385L27.7588 48.999Z" fill="#1D3780"/>
<path d="M74.1943 107.08H74.6338L76.5381 107.886L77.7832 108.472L77.5635 108.618L76.3184 109.204L73.2422 110.376L71.7773 110.815L70.6787 111.035H69.9463L70.0928 110.889L70.752 110.742L70.8984 110.596L71.4844 110.449L71.8506 110.303L72.4365 110.229L72.8027 110.01H72.9492V109.863L74.0479 109.351L74.9268 109.131L75.3662 108.838L75.6592 108.545L76.2451 108.765L75.9521 108.252V108.105L75.293 107.959L74.5605 107.666L74.1943 107.227V107.08Z" fill="#1D367F"/>
<path d="M75.9521 28.3447L76.6113 28.4912L77.124 28.6377L77.9297 29.0039L78.9551 29.2969L79.3945 29.5166L79.7607 29.5898L80.4932 29.8096L80.6396 29.9561L81.4453 30.249L82.4707 30.542L83.1299 30.835L84.082 31.2012L84.8877 31.4941L85.9131 31.8604L85.9863 32.0068L86.6455 32.1533L87.1582 32.373L88.4766 32.8125L89.1357 33.1055L90.7471 33.6914L91.626 34.0576L92.1387 34.2773L92.7979 34.4971L93.3105 34.6436L93.8232 34.8633L94.7754 35.2295L95.2881 35.376L95.9473 35.5957L96.46 35.8154L97.3389 36.1816L98.6572 36.6943L98.8037 36.8408L98.291 36.7676L95.3613 35.6689L91.5527 34.2773L85.1807 31.9336L82.1045 30.7617L78.7354 29.5166L76.7578 28.7842L75.9521 28.418V28.3447Z" fill="#1D3780"/>
<path d="M73.2422 53.6865L73.3887 53.7598L72.876 54.126L72.1436 54.4922L71.9238 54.7119L71.4844 54.7852L71.4111 54.9316L71.1914 55.0049L71.1182 55.1514L70.6055 55.3711L70.2393 55.5176L70.166 55.6641L69.4336 55.957L69.2871 56.1768L68.9209 56.25L68.7744 56.3965L68.2617 56.543V56.6895L67.8955 56.8359L67.4561 56.9824V57.1289L66.8701 57.3486L65.7715 57.9346H65.625L65.5518 58.1543L65.1123 58.3008L64.3066 58.7402L63.9404 58.96H63.7207L63.6475 59.1797L63.208 59.2529V59.3994L61.8896 60.0586L61.6699 60.2051H61.377V60.3516L60.6445 60.7178H60.4248V60.8643L60.0586 61.0107L59.8389 61.2305H59.4727V61.377L59.0332 61.5234L58.96 61.6699L58.3008 61.9629H58.1543V62.1094L57.6416 62.3291L57.4219 62.4756H57.1289L57.0557 62.6953L56.6162 62.8418L56.1768 63.0615L55.957 63.2812L55.6641 63.3545L54.9316 63.7939L54.4189 64.0869L54.2725 64.2334L53.4668 64.5264L53.1738 64.8193L52.7344 64.8926L52.8809 64.5996L56.25 62.7686L58.8135 61.4502L60.2051 60.7178L61.8164 59.8389L62.9883 59.2529L64.7461 58.3008L70.6055 55.1514L72.29 54.1992L73.2422 53.6865Z" fill="#1D3780"/>
<path d="M34.5703 80.4199H34.7168L35.376 82.251L36.1816 84.2285L37.207 86.7188L38.4521 89.502L39.2578 91.1133L39.4775 91.626L39.4043 91.9189L39.0381 91.5527L38.8916 91.333L38.7451 90.8936L38.3057 90.1611L37.793 88.9893V88.8428H37.6465L37.3535 87.8906L36.9141 87.0117L36.5479 86.0596L36.4014 85.8398L36.2549 85.3271L35.8887 84.5947L35.5225 83.6426L35.3027 82.9102L35.0098 82.251L34.79 81.4453L34.7168 81.0059L34.4971 80.7129L34.5703 80.4199Z" fill="#1D3780"/>
<path d="M101.953 76.4648H102.539L102.686 76.9043L102.1 77.4902L101.587 78.0762H101.294V77.9297H101.147L101.221 77.6367L101.367 77.417H101.514V77.2705L100.928 77.3438L100.635 77.4902L99.3896 77.5635L98.6572 77.3438L98.2178 77.2705V77.124L98.0713 77.0508V76.9043L98.291 76.8311H98.877L100.928 76.6113L101.953 76.4648Z" fill="#1C357E"/>
<path d="M112.939 87.5977L113.159 87.6709L113.013 87.7441L112.939 88.2568H112.793L112.866 88.4766L112.646 89.1357L112.427 89.2822L112.207 89.7217L112.134 90.0146V90.1611L111.914 90.3809L111.694 91.04L111.328 91.4062L111.255 91.6992L110.962 91.7725V92.2119L110.815 92.3584L110.742 92.8711L110.376 93.0908V93.2373H110.229L110.083 93.5303L109.863 94.043H109.717L109.644 94.5557L109.424 95.0684H109.204V95.2148H109.058L108.984 95.7275L108.618 95.8008L108.765 95.4346L109.863 93.457L110.522 92.2852L111.768 89.8682L112.5 88.3301L112.793 87.6709L112.939 87.5977Z" fill="#1D3780"/>
<path d="M74.1943 28.2715H74.6338V28.418L73.2422 28.9307L71.1182 29.7363L68.4082 30.6885L64.0869 32.2998L63.7939 32.2266L64.0869 32.0068L64.7461 31.7871L65.332 31.4941L65.9912 31.3477L66.7236 31.0547L66.9434 30.9814L67.0898 31.0547V30.9082L67.6758 30.6885L67.9688 30.542L68.6279 30.3955L69.0674 30.1758L69.7998 29.9561L70.3125 29.7363L70.6055 29.6631L70.8252 29.5166H71.0449V29.3701L71.7041 29.1504L72.1436 28.9307L72.29 29.0039L72.3633 28.8574H72.583V28.7109L73.2422 28.418H73.6084H73.8281H74.1943V28.2715Z" fill="#1F3982"/>
<path d="M94.7021 77.1973L95.0684 77.2705V77.417H94.8486L94.7754 77.5635H94.5557H94.1162V77.417H93.75V77.5635L92.6514 77.8564L91.9189 78.0029L91.04 78.0762L90.3076 78.1494H88.1836L88.1104 78.0762H87.2314V77.9297L88.3301 77.7832L91.04 77.6367L91.1865 77.71V77.5635L93.457 77.2705L94.7021 77.1973Z" fill="#1C357E"/>
<path d="M113.452 50.3174L113.745 50.3906L113.159 50.7568L112.72 51.2695L112.573 51.5625L111.401 51.9287L110.522 52.1484L110.156 52.0752L110.01 51.9287L110.376 51.5625H110.889L110.962 51.2695L112.72 50.6104L113.452 50.3174Z" fill="#1C367F"/>
<path d="M58.1543 100.562L58.7402 100.635L60.7178 101.44L62.7686 102.246L65.6982 103.418L66.2109 103.638V103.784L65.332 103.564L64.3066 103.125L63.0615 102.612L61.1572 101.88L60.5713 101.587L59.3262 101.147L58.5205 100.781L58.1543 100.635V100.562Z" fill="#1F3982"/>
<path d="M73.2422 53.6865L73.3887 53.7598L72.876 54.126L72.1436 54.4922L71.9238 54.7119L71.4844 54.7852L71.4111 54.9316L71.1914 55.0049L71.1182 55.1514L70.6055 55.3711L70.2393 55.5176L70.166 55.6641L69.4336 55.957L69.2871 56.1768L68.9209 56.25L68.7744 56.3965L68.2617 56.543V56.6895L67.8955 56.8359L67.4561 56.9824V57.1289L66.8701 57.3486L65.7715 57.9346H65.625L65.5518 58.1543L65.1123 58.3008L64.3066 58.7402L63.9404 58.96L63.6475 58.8867L65.9912 57.6416L67.6025 56.7627L69.7998 55.5908L71.4844 54.6387L73.2422 53.6865Z" fill="#1F3982"/>
<path d="M74.1943 28.2715H74.6338V28.418L73.2422 28.9307L71.1182 29.7363L70.5322 29.8828L70.6055 29.6631L70.8252 29.5166H71.0449V29.3701L71.7041 29.1504L72.1436 28.9307L72.29 29.0039L72.3633 28.8574H72.583V28.7109L73.2422 28.418H73.6084H73.8281H74.1943V28.2715Z" fill="#1D3780"/>
<path d="M116.089 43.1396L116.602 43.2129L117.334 43.4326L117.847 43.6523L118.872 44.0186L119.531 44.2383L120.483 44.5312L121.362 44.8975L122.534 45.4834L122.461 45.6299L120.996 45.0439L117.993 43.9453L116.162 43.2861L116.089 43.1396Z" fill="#1E3881"/>
<path d="M91.6992 34.1309L92.5049 34.3506L93.1641 34.5703L93.5303 34.79L95.9473 35.5957L96.46 35.8154L97.3389 36.1816L98.6572 36.6943L98.8037 36.8408L98.291 36.7676L95.3613 35.6689L91.5527 34.2773L91.6992 34.1309Z" fill="#1E3881"/>
<path d="M81.958 48.7793L82.251 48.8525L81.0059 49.5117L80.7129 49.7314L79.9072 50.1709L79.3213 50.4639H79.1748V50.6104L78.7354 50.8301L77.0508 51.7822L76.5381 52.1484L76.0254 52.3682L74.7803 53.1006L74.4873 53.2471H74.2676V53.3936L73.6816 53.6865H73.5352V53.54L75.4395 52.5146L77.1973 51.4893L78.6621 50.6836L79.9072 49.9512L81.7383 48.9258L81.958 48.7793Z" fill="#1F3A83"/>
<path d="M94.1895 77.124H94.9951L94.7021 77.2705L93.457 77.3438L91.6992 77.5635H91.1865V77.71L88.3301 77.8564H87.5244V77.7832L88.6963 77.6367L94.1895 77.124Z" fill="#27448D"/>
<path d="M63.5742 32.2266H63.7207V32.4463L60.4248 33.6182L59.6191 33.9111L59.4727 33.8379L59.8389 33.4717L60.498 33.252L60.791 33.1055H61.1572L61.5234 32.959L62.1826 32.7393L62.3291 32.8125V32.666L63.0615 32.4463L63.5742 32.2266Z" fill="#1E3881"/>
<path d="M73.2422 53.6865L73.3887 53.7598L72.876 54.126L72.1436 54.4922L71.9238 54.7119L71.4844 54.7852L71.4111 54.9316L71.1914 55.0049L71.1182 55.1514L70.6055 55.3711L70.2393 55.5176L70.166 55.6641L69.4336 55.957L69.2871 56.1768L68.9209 56.25L68.6279 56.3965L68.7012 56.1768L70.6055 55.1514L72.29 54.1992L73.2422 53.6865Z" fill="#1F3982"/>
<path d="M110.01 93.2373H110.229L110.083 93.5303L109.863 94.043H109.717L109.644 94.5557L109.424 95.0684H109.204V95.2148H109.058L108.984 95.7275L108.618 95.8008L108.765 95.4346L109.863 93.457L110.01 93.2373Z" fill="#1E3881"/>
<path d="M31.5674 70.5322H31.7139L32.2998 72.8027V73.1689L32.0801 73.0957L32.0068 72.5098L31.7871 72.2168L31.5674 71.2646L31.4941 70.752L31.5674 70.5322Z" fill="#1E3881"/>
<path d="M96.3867 40.21H96.5332V40.3564L95.8008 40.7959L95.2881 41.1621L94.4824 41.6016L93.8965 41.9678H93.75L93.6768 42.1875L92.9443 42.5537L92.7246 42.7002L92.5049 42.627L94.2627 41.5283L95.8008 40.5762L96.3867 40.21Z" fill="#1F3982"/>
<path d="M85.9131 97.0459H86.2793L86.2061 97.2656L84.7412 98.1445L84.4482 98.2178L84.5947 97.8516H84.8145L84.8877 97.4854L85.6201 97.1924L85.9131 97.0459Z" fill="#1E3780"/>
<path d="M92.3584 42.7002H92.5049V42.8467L91.8457 43.2129L90.8936 43.7988L89.2822 44.751L88.5498 45.1904H88.4033V45.0439L89.9414 44.165L91.9922 42.9199L92.3584 42.7002Z" fill="#1F3982"/>
<path d="M113.232 42.1143H113.599V42.2607H114.258L114.624 42.4072V42.5537L114.99 42.4805L115.356 42.7002V42.8467L115.796 42.9199L115.869 43.0664L115.356 42.9932L113.232 42.2607V42.1143Z" fill="#1E3881"/>
<path d="M78.0762 63.6475L78.3691 63.7207L78.0029 63.9404L77.5635 64.0869L77.2705 64.2334L76.9043 64.3066L76.1719 64.5996L75.5127 64.8926L74.707 65.1855L74.4873 65.1123L75.0732 64.8193L78.0762 63.6475Z" fill="#1F3982"/>
<path d="M70.0928 121.436L70.459 121.509L72.583 122.388L73.1689 122.607V122.754L72.8027 122.681L71.8506 122.388V122.241L71.2646 122.168L70.9717 121.948L70.166 121.655L70.0928 121.436Z" fill="#1E3881"/>
<path d="M63.6475 102.686L64.0869 102.759L66.2109 103.638V103.784L65.332 103.564L64.3066 103.125L63.6475 102.832V102.686Z" fill="#1E3881"/>
<path d="M102.539 76.3184H103.198L102.759 76.8311L102.466 76.6113L102.539 76.4648L100.269 76.7578H99.7559L99.9023 76.6113L102.539 76.3184Z" fill="#27448D"/>
<path d="M32.5928 74.2676L32.7393 74.3408L33.252 76.0254V76.4648H33.1055L32.959 75.9521L32.8125 75.6592L32.666 75L32.5195 74.4873L32.5928 74.2676Z" fill="#1E3881"/>
<path d="M65.625 31.4209L65.7715 31.5674L65.4785 31.7871L64.0869 32.2998L63.7939 32.2266L64.0869 32.0068L64.7461 31.7871L65.332 31.4941L65.625 31.4209Z" fill="#1E3881"/>
<path d="M68.6279 120.703L69.0674 120.85L70.166 121.362L69.9463 121.582L69.2871 121.362L68.7012 120.923L68.6279 120.703Z" fill="#1E3780"/>
<path d="M99.0234 38.5254L99.2432 38.5986L98.6572 38.9648H98.5107V39.1113L97.7783 39.5508L96.9727 40.0635L96.6064 40.21V40.0635L97.7783 39.3311L98.877 38.5986L99.0234 38.5254Z" fill="#1F3982"/>
<path d="M75.9521 28.3447L76.6113 28.4912L77.124 28.6377L77.9297 29.0039V29.2236L76.0254 28.4912L75.9521 28.3447Z" fill="#1E3881"/>
<path d="M63.5742 32.2266H63.7207V32.4463L61.8896 33.1055H61.7432L61.8164 32.8857L62.1826 32.7393L62.3291 32.8125V32.666L63.0615 32.4463L63.5742 32.2266Z" fill="#1F3A83"/>
<path d="M77.5635 122.534L77.71 122.607L77.3438 122.9L76.1719 123.34L75.7324 123.413V123.267L77.5635 122.534Z" fill="#1E3881"/>
<path d="M108.618 95.874L108.691 96.167V96.3135H108.545V96.46L108.252 96.5332L108.179 96.8262L107.812 97.3389L107.739 97.0459L108.398 96.0205L108.618 95.874Z" fill="#1D3780"/>
<path d="M56.0303 99.6826L56.7627 99.9023L57.9346 100.342V100.488L57.3486 100.342L56.9824 100.195L56.543 100.122L55.957 99.8291L56.0303 99.6826Z" fill="#1F3982"/>
<path d="M97.8516 70.459H97.998V70.6787L96.9727 71.0449H96.5332L96.8262 70.752L97.3389 70.6787L97.8516 70.459Z" fill="#1E3881"/>
<path d="M90.0879 94.4824L90.3076 94.5557V94.7021L89.4287 95.2148H89.209V94.9951H89.3555L89.4287 94.8486H89.5752L89.6484 94.7021L89.502 94.6289L89.8682 94.7021V94.5557L90.0879 94.4824Z" fill="#1E3881"/>
<path d="M92.7979 87.2314H93.0176L92.9443 87.4512L92.1387 87.9639L91.8457 87.8906L92.1387 87.5244L92.6514 87.4512V87.3047L92.7979 87.2314Z" fill="#1E3881"/>
<path d="M63.5742 58.96H63.7939L63.7207 59.1797L63.2812 59.2529V59.3994L62.4023 59.8389L62.0361 59.9121L62.3291 59.6191L63.5742 58.96Z" fill="#1D3780"/>
<path d="M67.0898 30.9082H67.2363V31.1279L65.8447 31.6406L65.6982 31.5674L66.0645 31.2744L66.9434 30.9814L67.0898 31.0547V30.9082Z" fill="#1F3A83"/>
<path d="M48.1934 104.443L48.7061 104.517L49.0723 104.663L49.292 105.029L48.8525 104.956L48.4131 104.736V104.59H48.1934V104.443Z" fill="#1E3881"/>
<path d="M70.0928 55.4443L70.3125 55.5176L70.2393 55.6641L69.5068 55.957L69.3604 56.1768L68.9941 56.25L68.7012 56.3965L68.7744 56.1768L70.0928 55.4443Z" fill="#1E3881"/>
<path d="M99.0967 55.7373H99.4629L99.3164 55.8838L98.8037 56.1035L98.9502 56.25L98.584 56.3965L98.5107 56.1768H98.291V56.0303L99.0967 55.7373Z" fill="#1E3881"/>
<path d="M100.122 69.2871L100.415 69.3604L100.342 69.5801L99.6094 69.9463L99.3164 69.873L99.7559 69.6533H99.9023L99.8291 69.4336L100.122 69.2871Z" fill="#1E3881"/>
<path d="M116.089 43.1396L116.602 43.2129L117.334 43.4326L117.48 43.7256L116.162 43.2861L116.089 43.1396Z" fill="#1F3982"/>
<path d="M96.8262 76.9775H97.6318L97.9248 77.124L97.5586 77.2705L96.8994 77.1973L96.8262 76.9775Z" fill="#1C357E"/>
<path d="M104.297 102.1H104.443L104.37 102.393L104.15 102.759L103.784 102.979L103.638 103.052L103.784 102.759L104.297 102.1Z" fill="#1F3A83"/>
<path d="M57.2754 62.2559L57.4219 62.3291L57.3486 62.4756H57.2021L57.1289 62.6953L56.6895 62.8418L56.3232 62.915V62.7686L57.2754 62.2559Z" fill="#1E3881"/>
<path d="M101.221 54.9316L101.514 55.0049L101.367 55.3711L100.854 55.4443L101.001 55.0049L101.221 54.9316Z" fill="#1D367F"/>
<path d="M99.6094 79.6875H99.9023L99.7559 79.9805L99.5361 80.2734L99.1699 80.127L99.3164 80.0537L99.3896 79.834L99.6094 79.6875Z" fill="#1E3881"/>
<path d="M59.2529 61.2305L59.3994 61.3037L59.3262 61.4502L59.1064 61.5234L59.0332 61.6699L58.374 61.9629L58.2275 61.8896L58.4473 61.6699L59.2529 61.2305Z" fill="#1E3881"/>
<path d="M102.539 54.4189L102.832 54.4922L102.612 54.7119L101.953 54.8584L101.587 54.9316V54.7852L102.539 54.4189Z" fill="#1F3982"/>
<path d="M83.7891 47.7539L83.9355 47.8271L83.5693 48.1201L82.8369 48.4863L82.4707 48.7061L82.3242 48.6328L83.2764 48.0469L83.7891 47.7539Z" fill="#1F3A83"/>
<path d="M76.6846 108.032L77.124 108.179L77.7832 108.472L77.4902 108.618L76.7578 108.252L76.6846 108.032Z" fill="#26438C"/>
<path d="M110.01 93.2373H110.229L110.083 93.5303L109.863 94.043L109.57 94.1162L109.717 93.75L110.01 93.2373Z" fill="#1F3982"/>
<path d="M112.354 41.8213L112.866 41.9678V42.041L112.28 42.1875L111.987 42.334L111.768 42.2607H111.914L111.987 42.041H112.28L112.354 41.8213Z" fill="#1E3881"/>
<path d="M96.3135 56.7627H96.6797L96.5332 56.9824L96.0938 57.0557L95.874 57.2754H95.7275L95.6543 57.0557L96.3135 56.7627Z" fill="#1E3881"/>
<path d="M107.666 97.4121H107.812L107.666 97.7783H107.52L107.446 98.0713H107.227L107.3 97.7783L107.666 97.4121Z" fill="#1E3780"/>
<path d="M72.0703 122.241L72.8027 122.461L73.1689 122.607V122.754L72.8027 122.681L72.1436 122.461L72.0703 122.241Z" fill="#203B84"/>
<path d="M100.415 55.2246L100.708 55.2979L100.415 55.4443L99.9023 55.6641L99.6094 55.5908L100.195 55.2979L100.415 55.2246Z" fill="#1F3A83"/>
<path d="M32.5928 74.2676L32.7393 74.3408L32.8857 75L32.5928 74.9268L32.5195 74.4873L32.5928 74.2676Z" fill="#1F3982"/>
<path d="M108.105 96.46L108.252 96.5332L108.179 96.8262L107.812 97.3389L107.739 97.0459L108.105 96.46Z" fill="#1F3982"/>
<path d="M34.5703 80.4199H34.7168L34.9365 81.2256H34.79L34.4971 80.7129L34.5703 80.4199Z" fill="#1F3A83"/>
<path d="M102.686 76.3916H103.052L102.905 76.6846L102.686 76.8311L102.466 76.6113L102.686 76.3916Z" fill="#223D86"/>
<path d="M103.931 66.3574L104.004 66.5771L103.418 67.1631H103.271L103.418 66.8701L103.638 66.7969V66.6504H103.784L103.931 66.3574Z" fill="#1F3A83"/>
<path d="M94.6289 35.2295L95.2881 35.376L95.5078 35.5957L94.9951 35.5225L94.6289 35.376V35.2295Z" fill="#1D3780"/>
<path d="M90.8936 33.8379L91.333 33.9111L91.6992 34.1309L91.4062 34.2041L90.8936 33.9844V33.8379Z" fill="#1D367F"/>
</svg>
